<svg xmlns="http://www.w3.org/2000/svg" width="80" height="70"><g fill="none" fill-rule="evenodd"><path fill="#272727" d="M20 26.0345v-8.2759h8.2759v8.2759H20zm9.6552 0v-8.2759h8.2758v8.2759h-8.2758zM20 35.6897v-8.276h8.2759v8.276H20zm9.6552 0v-8.276h8.2758v8.276h-8.2758zM20 45.3448V37.069h8.2759v8.2758H20zm9.6552 0V37.069h8.2758v8.2758h-8.2758zm9.6551 0V37.069h8.276v8.2758h-8.276zm9.6552 0V37.069h8.2759v8.2758h-8.2759zM20 55v-8.2759h8.2759V55H20zm9.6552 0v-8.2759h8.2758V55h-8.2758zm9.6551 0v-8.2759h8.276V55h-8.276zm9.6552 0v-8.2759h8.2759V55h-8.2759z"/><path fill="#FF3A02" d="M42.069 23.2759V15h8.2758v8.2759H42.069zm9.6551 0V15H60v8.2759h-8.2759zM42.069 32.931v-8.2758h8.2758v8.2758H42.069zm9.6551 0v-8.2758H60v8.2758h-8.2759z"/></g></svg>